<svg width="32" height="32" viewBox="0 0 32 32" fill="none" xmlns="http://www.w3.org/2000/svg">
<g filter="url(#filter0_d_496_117)">
<rect x="4" width="24" height="24" rx="12" fill="#F39649"/>
<path d="M14.2679 21C14.4435 21.304 14.696 21.5565 15 21.732C15.304 21.9075 15.6489 21.9999 15.9999 21.9999C16.351 21.9999 16.6959 21.9075 16.9999 21.732C17.3039 21.5565 17.5564 21.304 17.7319 21" stroke="#EEF5FF" stroke-width="2" stroke-linecap="round" stroke-linejoin="round"/>
<path d="M7.262 15.326C7.13137 15.4692 7.04516 15.6472 7.01386 15.8385C6.98256 16.0298 7.00752 16.226 7.08571 16.4034C7.1639 16.5807 7.29194 16.7316 7.45426 16.8375C7.61658 16.9434 7.80618 16.9999 8 17H24C24.1938 17.0001 24.3834 16.9438 24.5459 16.8381C24.7083 16.7324 24.8365 16.5817 24.9149 16.4045C24.9933 16.2273 25.0185 16.0311 24.9874 15.8398C24.9564 15.6485 24.8704 15.4703 24.74 15.327C23.41 13.956 22 12.499 22 8C22 6.4087 21.3679 4.88258 20.2426 3.75736C19.1174 2.63214 17.5913 2 16 2C14.4087 2 12.8826 2.63214 11.7574 3.75736C10.6321 4.88258 10 6.4087 10 8C10 12.499 8.589 13.956 7.262 15.326Z" stroke="#EEF5FF" stroke-width="2" stroke-linecap="round" stroke-linejoin="round"/>
<circle cx="20" cy="3" r="2" fill="#C44412"/>
</g>
<defs>
<filter id="filter0_d_496_117" x="0" y="0" width="32" height="32" filterUnits="userSpaceOnUse" color-interpolation-filters="sRGB">
<feFlood flood-opacity="0" result="BackgroundImageFix"/>
<feColorMatrix in="SourceAlpha" type="matrix" values="0 0 0 0 0 0 0 0 0 0 0 0 0 0 0 0 0 0 127 0" result="hardAlpha"/>
<feOffset dy="4"/>
<feGaussianBlur stdDeviation="2"/>
<feComposite in2="hardAlpha" operator="out"/>
<feColorMatrix type="matrix" values="0 0 0 0 0.835294 0 0 0 0 0.85098 0 0 0 0 0.886275 0 0 0 1 0"/>
<feBlend mode="normal" in2="BackgroundImageFix" result="effect1_dropShadow_496_117"/>
<feBlend mode="normal" in="SourceGraphic" in2="effect1_dropShadow_496_117" result="shape"/>
</filter>
</defs>
</svg>
